<svg xmlns="http://www.w3.org/2000/svg" version="1.1" xmlns:xlink="http://www.w3.org/1999/xlink" xmlns:svgjs="http://svgjs.dev/svgjs" width="1500" height="1500" viewBox="0 0 1500 1500"><rect width="1500" height="1500" fill="#ffffff"></rect><g transform="matrix(0.6666666666666666,0,0,0.6666666666666666,249.39393939393938,678.2908299887433)"><svg viewBox="0 0 396 57" data-background-color="#ffffff" preserveAspectRatio="xMidYMid meet" height="215" width="1500" xmlns="http://www.w3.org/2000/svg" xmlns:xlink="http://www.w3.org/1999/xlink"><g id="tight-bounds" transform="matrix(1,0,0,1,0.2400000000000091,0.016902492848572592)"><svg viewBox="0 0 395.52 56.96619501430283" height="56.96619501430283" width="395.52"><g><svg viewBox="0 0 473.55968722645537 68.20614252997197" height="56.96619501430283" width="395.52"><g transform="matrix(1,0,0,1,78.03968722645541,10.375564262184874)"><svg viewBox="0 0 395.52 47.45501400560222" height="47.45501400560222" width="395.52"><g id="textblocktransform"><svg viewBox="0 0 395.52 47.45501400560222" height="47.45501400560222" width="395.52" id="textblock"><g><svg viewBox="0 0 395.52 47.45501400560222" height="47.45501400560222" width="395.52"><g transform="matrix(1,0,0,1,0,0)"><svg width="395.52" viewBox="2.9 -37.75 321.27000000000004 38.55" height="47.45501400560222" data-palette-color="#0063db"><path d="M24.2-24.4L22.4-24.4Q22.25-26.8 21.25-28.95 20.25-31.1 18.35-32.45 16.45-33.8 13.5-33.8L13.5-33.8Q10.4-33.8 8.75-32.05 7.1-30.3 7.1-27.95L7.1-27.95Q7.1-25.85 8.3-24.43 9.5-23 11.43-21.93 13.35-20.85 15.5-19.85L15.5-19.85Q17.4-19 19.3-18.03 21.2-17.05 22.75-15.8 24.3-14.55 25.23-12.83 26.15-11.1 26.15-8.7L26.15-8.7Q26.15-5.95 24.78-3.8 23.4-1.65 20.8-0.43 18.2 0.8 14.45 0.8L14.45 0.8Q12.2 0.8 9.8 0.15 7.4-0.5 5.55-1.75L5.55-1.75 5.8 0.4 3.2 0.4 2.9-10.25 4.85-10.25Q5.1-5.85 7.9-3.58 10.7-1.3 14.65-1.3L14.65-1.3Q16.6-1.3 18.25-2.02 19.9-2.75 20.88-4.15 21.85-5.55 21.85-7.55L21.85-7.55Q21.85-9.8 20.65-11.3 19.45-12.8 17.55-13.9 15.65-15 13.5-16L13.5-16Q11.6-16.85 9.75-17.8 7.9-18.75 6.38-19.98 4.85-21.2 3.93-22.9 3-24.6 3-27L3-27Q3-28.3 3.45-29.8 3.9-31.3 5.03-32.68 6.15-34.05 8.13-34.93 10.1-35.8 13.15-35.8L13.15-35.8Q15.05-35.8 17.43-35.27 19.8-34.75 21.85-33.25L21.85-33.25 21.65-35.4 24.2-35.4 24.2-24.4ZM46.6 0L46.6-1.5Q48.15-1.5 48.75-2.27 49.35-3.05 49.45-4.42 49.55-5.8 49.55-7.6L49.55-7.6 49.55-14.6Q49.55-18.9 48.17-21.05 46.8-23.2 43.85-23.15L43.85-23.15Q42-23.1 40.22-22.25 38.45-21.4 37.35-20.05L37.35-20.05 37.35-5.3Q37.35-4.3 37.3-3.53 37.25-2.75 37.1-1.9L37.1-1.9Q37.9-1.95 38.67-1.98 39.45-2 40.25-2.05L40.25-2.05 40.25 0 30.05 0 30.05-1.5Q31.6-1.5 32.2-2.27 32.8-3.05 32.92-4.42 33.05-5.8 33.05-7.6L33.05-7.6 33.05-31.25Q33.05-32.05 33.07-32.77 33.1-33.5 33.2-34.5L33.2-34.5Q32.3-34.45 31.42-34.4 30.55-34.35 29.65-34.3L29.65-34.3 29.65-36.4Q31.85-36.4 33.07-36.6 34.3-36.8 34.92-37.1 35.55-37.4 35.9-37.75L35.9-37.75 37.35-37.75 37.35-22.5Q38.45-23.45 39.82-24.18 41.2-24.9 42.67-25.35 44.15-25.8 45.55-25.8L45.55-25.8Q49.9-25.8 51.82-23.08 53.75-20.35 53.8-14.6L53.8-14.6 53.85-5.3Q53.85-4.3 53.82-3.53 53.8-2.75 53.65-1.9L53.65-1.9Q54.45-1.95 55.22-1.98 56-2 56.8-2.05L56.8-2.05 56.8 0 46.6 0ZM60.5 0L60.5-1.5Q62.05-1.5 62.65-2.27 63.25-3.05 63.34-4.42 63.45-5.8 63.45-7.6L63.45-7.6 63.45-19Q63.45-19.8 63.5-20.53 63.55-21.25 63.65-22.25L63.65-22.25Q62.75-22.2 61.87-22.15 61-22.1 60.09-22.05L60.09-22.05 60.09-24.15Q62.3-24.15 63.5-24.35 64.7-24.55 65.32-24.85 65.95-25.15 66.3-25.5L66.3-25.5 67.75-25.5 67.75-5.3Q67.75-4.3 67.72-3.53 67.7-2.75 67.55-1.9L67.55-1.9Q68.34-1.95 69.12-1.98 69.9-2 70.7-2.05L70.7-2.05 70.7 0 60.5 0ZM65.34-30.45L65.34-30.45Q64.3-30.45 63.5-31.3 62.7-32.15 62.7-33.4L62.7-33.4Q62.7-34.65 63.52-35.52 64.34-36.4 65.39-36.4L65.39-36.4Q66.55-36.4 67.32-35.52 68.09-34.65 68.09-33.4L68.09-33.4Q68.09-32.15 67.27-31.3 66.45-30.45 65.34-30.45ZM86.64 0.8L86.64 0.8Q83.19 0.8 80.42-0.83 77.64-2.45 76.04-5.43 74.44-8.4 74.44-12.45L74.44-12.45Q74.44-15.95 76.02-19 77.59-22.05 80.44-23.93 83.29-25.8 87.04-25.8L87.04-25.8Q89.14-25.8 90.97-25.13 92.79-24.45 94.19-23.08 95.59-21.7 96.39-19.63 97.19-17.55 97.19-14.75L97.19-14.75 79.59-14.45Q79.59-10.65 80.42-7.78 81.24-4.9 83.09-3.33 84.94-1.75 87.84-1.75L87.84-1.75Q89.39-1.75 91.02-2.3 92.64-2.85 94.04-3.8 95.44-4.75 96.29-5.9L96.29-5.9 97.49-4.9Q96.14-2.8 94.24-1.55 92.34-0.3 90.34 0.25 88.34 0.8 86.64 0.8ZM79.74-16.55L79.74-16.55 92.49-16.55Q92.49-18.35 91.97-20.03 91.44-21.7 90.24-22.78 89.04-23.85 87.09-23.85L87.09-23.85Q84.19-23.85 82.27-22.13 80.34-20.4 79.74-16.55ZM101.14 0L101.14-1.5Q102.69-1.5 103.29-2.27 103.89-3.05 103.99-4.42 104.09-5.8 104.09-7.6L104.09-7.6 104.09-31.25Q104.09-32.05 104.11-32.77 104.14-33.5 104.24-34.5L104.24-34.5Q103.34-34.45 102.47-34.4 101.59-34.35 100.69-34.3L100.69-34.3 100.69-36.4Q102.89-36.4 104.11-36.6 105.34-36.8 105.97-37.1 106.59-37.4 106.94-37.75L106.94-37.75 108.39-37.75 108.44-5.3Q108.44-4.3 108.39-3.53 108.34-2.75 108.19-1.9L108.19-1.9Q108.99-1.95 109.77-1.98 110.54-2 111.34-2.05L111.34-2.05 111.34 0 101.14 0ZM125.94 0.8L125.94 0.8Q122.89 0.8 120.44-0.73 117.99-2.25 116.56-5.1 115.14-7.95 115.14-11.8L115.14-11.8Q115.14-15.9 116.79-19.05 118.44-22.2 121.36-24 124.29-25.8 127.99-25.8L127.99-25.8Q129.64-25.8 131.26-25.38 132.89-24.95 133.84-24.4L133.84-24.4 133.84-31.25Q133.84-32.05 133.86-32.77 133.89-33.5 133.99-34.5L133.99-34.5Q133.09-34.45 132.21-34.4 131.34-34.35 130.44-34.3L130.44-34.3 130.44-36.4Q132.64-36.4 133.84-36.6 135.04-36.8 135.66-37.1 136.29-37.4 136.64-37.75L136.64-37.75 138.09-37.75 138.09-5.3Q138.09-4.5 138.04-3.7 137.99-2.9 137.89-1.9L137.89-1.9Q138.79-1.95 139.66-2 140.54-2.05 141.44-2.1L141.44-2.1 141.44 0 134.29 0Q134.14-0.75 134.06-1.38 133.99-2 133.94-2.6L133.94-2.6Q132.54-1.05 130.49-0.13 128.44 0.8 125.94 0.8ZM127.74-1.65L127.74-1.65Q129.39-1.65 131.06-2.6 132.74-3.55 133.84-4.95L133.84-4.95Q133.79-5.55 133.79-6.23 133.79-6.9 133.79-7.7L133.79-7.7 133.84-22.1Q132.64-23 131.21-23.43 129.79-23.85 128.29-23.85L128.29-23.85Q125.79-23.85 123.94-22.4 122.09-20.95 121.14-18.35 120.19-15.75 120.29-12.25L120.29-12.25Q120.39-9.2 121.26-6.8 122.14-4.4 123.76-3.03 125.39-1.65 127.74-1.65ZM156.49 0.8L156.49 0.8Q154.28 0.8 152.19 0.28 150.09-0.25 148.41-1.43 146.74-2.6 145.74-4.48 144.74-6.35 144.74-9L144.74-9Q144.74-12.25 146.86-14.75 148.99-17.25 152.59-18.8L152.59-18.8Q151.28-20.5 150.44-21.98 149.59-23.45 149.19-24.93 148.78-26.4 148.78-27.95L148.78-27.95Q148.84-31.55 151.44-33.68 154.03-35.8 158.03-35.8L158.03-35.8Q160.59-35.8 162.46-34.88 164.34-33.95 165.36-32.38 166.38-30.8 166.38-28.8L166.38-28.8Q166.38-26.95 165.59-25.25 164.78-23.55 162.99-21.98 161.19-20.4 158.19-18.85L158.19-18.85Q159.53-17.45 161.16-15.75 162.78-14.05 164.44-12.43 166.09-10.8 167.44-9.5L167.44-9.5Q167.69-10.4 167.81-11.23 167.94-12.05 167.94-12.7L167.94-12.7Q167.94-13.85 167.61-14.98 167.28-16.1 166.46-16.88 165.63-17.65 164.13-17.7L164.13-17.7 164.13-19.35 172.88-19.35 172.88-17.3 168.74-17.5Q169.53-16.85 169.88-15.8 170.24-14.75 170.28-13.35L170.28-13.35Q170.34-12.4 170.11-10.93 169.88-9.45 169.28-7.85L169.28-7.85Q169.84-7.35 170.46-6.78 171.09-6.2 171.78-5.6L171.78-5.6Q174.03-3.6 175.66-2.63 177.28-1.65 178.09-1.65L178.09-1.65 178.09 0 173.44 0Q172.99 0 171.41-0.93 169.84-1.85 167.24-4.15L167.24-4.15Q165.63-2.1 163.01-0.65 160.38 0.8 156.49 0.8ZM157.09-1.7L157.09-1.7Q160.24-1.6 162.31-2.73 164.38-3.85 165.63-5.55L165.63-5.55Q165.28-5.9 164.94-6.23 164.59-6.55 164.19-6.9L164.19-6.9Q160.84-10.2 158.26-12.75 155.69-15.3 153.88-17.35L153.88-17.35Q152.28-16.4 151.38-15 150.49-13.6 150.11-12.2 149.74-10.8 149.74-9.75L149.74-9.75Q149.74-7 150.81-5.25 151.88-3.5 153.56-2.65 155.24-1.8 157.09-1.7ZM157.09-20.05L157.09-20.05Q159.88-21.9 161.24-24.18 162.59-26.45 162.59-28.65L162.59-28.65Q162.59-31.05 161.34-32.63 160.09-34.2 157.78-34.2L157.78-34.2Q155.74-34.2 154.36-32.68 152.99-31.15 152.99-28.35L152.99-28.35Q152.99-26.2 154.16-24.1 155.34-22 157.09-20.05ZM201.88-24.4L200.08-24.4Q199.93-26.8 198.93-28.95 197.93-31.1 196.03-32.45 194.13-33.8 191.18-33.8L191.18-33.8Q188.08-33.8 186.43-32.05 184.78-30.3 184.78-27.95L184.78-27.95Q184.78-25.85 185.98-24.43 187.18-23 189.11-21.93 191.03-20.85 193.18-19.85L193.18-19.85Q195.08-19 196.98-18.03 198.88-17.05 200.43-15.8 201.98-14.55 202.91-12.83 203.83-11.1 203.83-8.7L203.83-8.7Q203.83-5.95 202.46-3.8 201.08-1.65 198.48-0.43 195.88 0.8 192.13 0.8L192.13 0.8Q189.88 0.8 187.48 0.15 185.08-0.5 183.23-1.75L183.23-1.75 183.48 0.4 180.88 0.4 180.58-10.25 182.53-10.25Q182.78-5.85 185.58-3.58 188.38-1.3 192.33-1.3L192.33-1.3Q194.28-1.3 195.93-2.02 197.58-2.75 198.56-4.15 199.53-5.55 199.53-7.55L199.53-7.55Q199.53-9.8 198.33-11.3 197.13-12.8 195.23-13.9 193.33-15 191.18-16L191.18-16Q189.28-16.85 187.43-17.8 185.58-18.75 184.06-19.98 182.53-21.2 181.61-22.9 180.68-24.6 180.68-27L180.68-27Q180.68-28.3 181.13-29.8 181.58-31.3 182.71-32.68 183.83-34.05 185.81-34.93 187.78-35.8 190.83-35.8L190.83-35.8Q192.73-35.8 195.11-35.27 197.48-34.75 199.53-33.25L199.53-33.25 199.33-35.4 201.88-35.4 201.88-24.4ZM218.48 0.15L216.58 0.15 210.03-19.05Q209.68-20.1 209.41-20.85 209.13-21.6 208.98-22.15 208.83-22.7 208.73-23.1L208.73-23.1 206.08-22.95 206.08-25 216.68-25 216.68-23.5Q214.43-23.45 214.21-21.98 213.98-20.5 214.78-18.1L214.78-18.1 217.08-11.1Q217.48-9.9 217.88-8.68 218.28-7.45 218.68-6.25L218.68-6.25Q219.13-7.6 219.6-8.97 220.08-10.35 220.53-11.75L220.53-11.75 224.98-25 227.03-25 232.08-10.45Q232.48-9.35 232.88-8.2 233.28-7.05 233.68-5.9L233.68-5.9Q234.08-7 234.46-8.08 234.83-9.15 235.18-10.25L235.18-10.25 238.48-19.75Q238.83-20.75 239.18-21.65 239.53-22.55 239.98-23.1L239.98-23.1 237.08-22.95 237.08-25 245.78-25 245.78-23.5Q244.48-23.45 243.66-23.15 242.83-22.85 242.28-22.35 241.73-21.85 241.38-21.15 241.03-20.45 240.73-19.55L240.73-19.55 233.53 0.15 231.53 0.15 226.78-13.5Q226.48-14.4 226.18-15.28 225.88-16.15 225.58-17.03 225.28-17.9 224.98-18.75L224.98-18.75Q224.68-17.9 224.38-17.03 224.08-16.15 223.78-15.28 223.48-14.4 223.18-13.5L223.18-13.5 218.48 0.15ZM259.83 0.8L259.83 0.8Q256.33 0.8 253.48-0.83 250.63-2.45 248.95-5.33 247.28-8.2 247.28-11.9L247.28-11.9Q247.28-15.85 248.93-19 250.58-22.15 253.43-23.98 256.28-25.8 259.83-25.8L259.83-25.8Q263.33-25.8 266.18-24.13 269.03-22.45 270.73-19.6 272.43-16.75 272.43-13.1L272.43-13.1Q272.43-9.25 270.75-6.08 269.08-2.9 266.23-1.05 263.38 0.8 259.83 0.8ZM260.23-1.2L260.23-1.2Q262.88-1.2 264.43-2.7 265.98-4.2 266.65-6.6 267.33-9 267.33-11.65L267.33-11.65Q267.33-13.9 266.9-16.07 266.48-18.25 265.58-20.03 264.68-21.8 263.25-22.85 261.83-23.9 259.83-23.9L259.83-23.9Q257.23-23.9 255.58-22.4 253.93-20.9 253.15-18.5 252.38-16.1 252.38-13.35L252.38-13.35Q252.38-10.25 253.23-7.48 254.08-4.7 255.83-2.95 257.58-1.2 260.23-1.2ZM276.68 0L276.68-1.5Q278.23-1.5 278.83-2.27 279.43-3.05 279.53-4.42 279.63-5.8 279.63-7.6L279.63-7.6 279.63-19Q279.63-19.8 279.65-20.6 279.68-21.4 279.83-22.25L279.83-22.25Q278.93-22.2 278.05-22.18 277.18-22.15 276.28-22.1L276.28-22.1 276.28-24.15 277.83-24.15Q279.98-24.15 280.8-24.58 281.63-25 282.18-25.5L282.18-25.5 283.63-25.5Q283.73-24.7 283.78-23.53 283.83-22.35 283.88-20.55L283.88-20.55Q284.63-21.8 285.93-23 287.23-24.2 288.85-25 290.48-25.8 292.28-25.8L292.28-25.8Q293.68-25.8 294.73-25.05 295.78-24.3 295.78-22.65L295.78-22.65Q295.78-22.25 295.53-21.68 295.28-21.1 294.73-20.68 294.18-20.25 293.28-20.25L293.28-20.25Q292.18-20.3 291.53-21.13 290.88-21.95 291.03-23.05L291.03-23.05Q289.78-23.1 288.45-22.4 287.13-21.7 285.98-20.48 284.83-19.25 283.93-17.6L283.93-17.6 283.98-5.3Q283.98-4.3 283.95-3.53 283.93-2.75 283.78-1.9L283.78-1.9Q284.58-1.95 285.35-1.98 286.13-2 286.93-2.05L286.93-2.05 286.93 0 276.68 0ZM308.67 0.8L308.67 0.8Q305.62 0.8 303.17-0.73 300.72-2.25 299.3-5.1 297.87-7.95 297.87-11.8L297.87-11.8Q297.87-15.9 299.52-19.05 301.17-22.2 304.1-24 307.02-25.8 310.72-25.8L310.72-25.8Q312.37-25.8 314-25.38 315.62-24.95 316.57-24.4L316.57-24.4 316.57-31.25Q316.57-32.05 316.6-32.77 316.62-33.5 316.72-34.5L316.72-34.5Q315.82-34.45 314.95-34.4 314.07-34.35 313.17-34.3L313.17-34.3 313.17-36.4Q315.37-36.4 316.57-36.6 317.77-36.8 318.4-37.1 319.02-37.4 319.37-37.75L319.37-37.75 320.82-37.75 320.82-5.3Q320.82-4.5 320.77-3.7 320.72-2.9 320.62-1.9L320.62-1.9Q321.52-1.95 322.4-2 323.27-2.05 324.17-2.1L324.17-2.1 324.17 0 317.02 0Q316.87-0.75 316.8-1.38 316.72-2 316.67-2.6L316.67-2.6Q315.27-1.05 313.22-0.13 311.17 0.8 308.67 0.8ZM310.47-1.65L310.47-1.65Q312.12-1.65 313.8-2.6 315.47-3.55 316.57-4.95L316.57-4.95Q316.52-5.55 316.52-6.23 316.52-6.9 316.52-7.7L316.52-7.7 316.57-22.1Q315.37-23 313.95-23.43 312.52-23.85 311.02-23.85L311.02-23.85Q308.52-23.85 306.67-22.4 304.82-20.95 303.87-18.35 302.92-15.75 303.02-12.25L303.02-12.25Q303.12-9.2 304-6.8 304.87-4.4 306.5-3.03 308.12-1.65 310.47-1.65Z" opacity="1" transform="matrix(1,0,0,1,0,0)" fill="#0063db" class="wordmark-text-0" data-fill-palette-color="primary" id="text-0"></path></svg></g></svg></g></svg></g></svg></g><g><svg viewBox="0 0 66.83669734006887 68.20614252997197" height="68.20614252997197" width="66.83669734006887"><g><svg xmlns="http://www.w3.org/2000/svg" xmlns:xlink="http://www.w3.org/1999/xlink" version="1.1" x="8" y="0" viewBox="17.297984073868285 7.411 65.40905410401965 87.75745672709292" enable-background="new 0 0 100 100" xml:space="preserve" height="68.20614252997197" width="50.83669734006886" class="icon-icon-0" data-fill-palette-color="accent" id="icon-0"><path d="M51.813 12.411L52.846 12.529C53.833 12.641 54.824 12.753 55.809 12.879 60.684 13.497 65.29 14.79 69.503 16.723 71.667 17.717 73.777 18.864 76.012 20.079 76.575 20.384 77.135 20.689 77.698 20.992 77.682 25.389 77.684 29.825 77.684 34.13 77.686 39.863 77.688 45.791 77.651 51.615 77.61 58.629 75.403 65.097 70.903 71.396 65.749 78.615 58.915 84.582 50.046 89.593 40.546 83.989 33.4 77.499 28.245 69.806 24.173 63.732 22.232 57.361 22.312 50.327 22.4 42.458 22.364 34.476 22.329 26.757 22.32 24.784 22.311 22.811 22.304 20.839 30.033 16.162 37.865 13.465 46.188 12.61 46.665 12.561 47.142 12.51 47.619 12.458L48.066 12.41zM52.1 7.411H47.798C47.092 7.486 46.383 7.564 45.676 7.637 35.648 8.668 26.516 12.178 18.065 17.589 17.482 17.963 17.296 18.382 17.298 19.054 17.328 29.46 17.429 39.867 17.313 50.272 17.22 58.467 19.577 65.855 24.092 72.591 30.603 82.307 39.442 89.424 49.554 95.076A0.9 0.9 0 0 0 49.98 95.168C50.16 95.168 50.345 95.13 50.477 95.061 60.143 89.915 68.562 83.278 74.975 74.301 79.811 67.532 82.604 60.024 82.653 51.645 82.719 40.866 82.66 30.086 82.707 19.308 82.711 18.367 82.401 17.825 81.627 17.418 78.284 15.667 75.017 13.751 71.593 12.18 66.785 9.974 61.703 8.587 56.443 7.92 54.994 7.735 53.546 7.579 52.1 7.411" fill="#d90000" data-fill-palette-color="accent"></path><path d="M48.491 62.945L45.318 66.119 31.777 52.579 34.951 49.406z" fill="#d90000" data-fill-palette-color="accent"></path><rect x="28.258" y="59.134" transform="matrix(0.7072 -0.707 0.707 0.7072 -32.6077 43.7845)" width="16.609" height="4.259" fill="#d90000" data-fill-palette-color="accent"></rect><g fill="#d90000" data-fill-palette-color="accent"><g fill="#d90000" data-fill-palette-color="accent"><polygon points="58.51,46.317 69.379,35.45 71.896,26.006 62.703,28.773 51.834,39.642   " fill="#d90000" data-fill-palette-color="accent"></polygon></g><g fill="#d90000" data-fill-palette-color="accent"><rect x="40.956" y="49.962" transform="matrix(-0.707 0.7072 -0.7072 -0.707 112.8808 62.5994)" width="5.035" height="9.442" fill="#d90000" data-fill-palette-color="accent"></rect></g></g><path d="M51.509 62.585L54.682 65.759 68.223 52.219 65.048 49.046z" fill="#d90000" data-fill-palette-color="accent"></path><rect x="55.134" y="58.776" transform="matrix(-0.7071 -0.7071 0.7071 -0.7071 65.229 148.8313)" width="16.609" height="4.261" fill="#d90000" data-fill-palette-color="accent"></rect><g fill="#d90000" data-fill-palette-color="accent"><polygon points="58.089,49.205 37.297,28.413 28.103,25.646 30.621,35.088 51.413,55.881 54.971,59.439 61.648,52.766  " fill="#d90000" data-fill-palette-color="accent"></polygon></g></svg></g></svg></g></svg></g><defs></defs></svg><rect width="395.52" height="56.96619501430283" fill="none" stroke="none" visibility="hidden"></rect></g></svg></g></svg>