<svg xmlns="http://www.w3.org/2000/svg" version="1.1" xmlns:xlink="http://www.w3.org/1999/xlink" xmlns:svgjs="http://svgjs.dev/svgjs" width="1500" height="1500" viewBox="0 0 1500 1500"><rect width="1500" height="1500" fill="#ffffff"></rect><g transform="matrix(0.6666666666666666,0,0,0.6666666666666666,249.39393939393938,693.1182651389211)"><svg viewBox="0 0 396 45" data-background-color="#ffffff" preserveAspectRatio="xMidYMid meet" height="170" width="1500" xmlns="http://www.w3.org/2000/svg" xmlns:xlink="http://www.w3.org/1999/xlink"><g id="tight-bounds" transform="matrix(1,0,0,1,0.2400000000000091,0.08539472425198369)"><svg viewBox="0 0 395.52 44.82921055149602" height="44.82921055149602" width="395.52"><g><svg viewBox="0 0 458.8224229874356 52.004063020457416" height="44.82921055149602" width="395.52"><g transform="matrix(1,0,0,1,63.30242298743558,7.910893033224433)"><svg viewBox="0 0 395.52 36.18227695400855" height="36.18227695400855" width="395.52"><g id="textblocktransform"><svg viewBox="0 0 395.52 36.18227695400855" height="36.18227695400855" width="395.52" id="textblock"><g><svg viewBox="0 0 395.52 36.18227695400855" height="36.18227695400855" width="395.52"><g transform="matrix(1,0,0,1,0,0)"><svg width="395.52" viewBox="3.45 -35.7 397.87 36.400000000000006" height="36.18227695400855" data-palette-color="#0063db"><path d="M3.45-1.1L3.45-1.1 3.75-4.1 4.05-4.1Q6-2.4 8.45-1.45 10.9-0.5 13.3-0.5L13.3-0.5Q16.7-0.5 18.8-2.38 20.9-4.25 20.9-7.4L20.9-7.4Q20.9-9.15 20.13-10.65 19.35-12.15 17.57-13.7 15.8-15.25 12.7-17.05L12.7-17.05Q10.55-18.3 8.6-19.68 6.65-21.05 5.4-22.88 4.15-24.7 4.15-27.25L4.15-27.25Q4.15-31.05 6.9-33.38 9.65-35.7 14.15-35.7L14.15-35.7Q16.15-35.7 18.45-35.27 20.75-34.85 22-34.2L22-34.2 21.75-31.4 21.45-31.4Q18.6-34.5 14.15-34.5L14.15-34.5Q10.95-34.5 9-32.88 7.05-31.25 7.05-28.5L7.05-28.5Q7.05-26.45 8.13-24.98 9.2-23.5 10.9-22.33 12.6-21.15 14.55-20.05L14.55-20.05Q16.8-18.75 18.93-17.3 21.05-15.85 22.43-13.83 23.8-11.8 23.8-8.75L23.8-8.75Q23.8-5.95 22.5-3.83 21.2-1.7 18.82-0.5 16.45 0.7 13.3 0.7L13.3 0.7Q11.3 0.7 8.6 0.2 5.9-0.3 3.45-1.1ZM37.05 0L33.65 0 33.65-35 37.05-35 37.05-18.8 58.05-18.8 58.05-35 61.45-35 61.45 0 58.05 0 58.05-17.6 37.05-17.6 37.05 0ZM77.85 0L74.45 0 74.45-35 77.85-35 77.85 0ZM106.24 0L90.84 0 90.84-35 106.09-35 106.09-32.55 97.34-33.7Q95.04-34 94.24-34L94.24-34 94.24-18.75Q94.89-18.75 97.34-18.9L97.34-18.9 105.54-19.4 105.54-17.1 97.34-17.6Q94.89-17.75 94.24-17.75L94.24-17.75 94.24-1Q95.14-1 97.39-1.3L97.39-1.3 106.24-2.45 106.24 0ZM116.74 0L116.74-35 120.14-35 120.14-1Q121.09-1 123.14-1.3L123.14-1.3 131.44-2.55 131.44 0 116.74 0ZM150.79 0L139.79 0 139.79-35 150.79-35Q156.59-35 160.89-32.8 165.19-30.6 167.59-26.68 169.99-22.75 169.99-17.5L169.99-17.5Q169.99-12.25 167.59-8.33 165.19-4.4 160.89-2.2 156.59 0 150.79 0L150.79 0ZM150.79-33.8L150.79-33.8 143.19-33.8 143.19-1.2 150.79-1.2Q158.04-1.2 162.11-5.5 166.19-9.8 166.19-17.5L166.19-17.5Q166.19-25.2 162.11-29.5 158.04-33.8 150.79-33.8ZM207.54 0L203.09 0 198.39-5.1Q196.34-2.05 193.96-0.68 191.59 0.7 188.34 0.7L188.34 0.7Q185.09 0.7 182.64-0.48 180.19-1.65 178.84-3.78 177.49-5.9 177.49-8.7L177.49-8.7Q177.49-12.15 179.56-14.83 181.64-17.5 185.54-19.05L185.54-19.05 185.14-19.5Q182.84-22 181.84-24.03 180.84-26.05 180.84-28.2L180.84-28.2Q180.84-31.6 182.99-33.65 185.14-35.7 188.64-35.7L188.64-35.7Q192.04-35.7 194.11-33.83 196.19-31.95 196.19-28.85L196.19-28.85Q196.19-26.05 194.36-23.65 192.54-21.25 189.44-19.65L189.44-19.65 199.24-9 202.74-18.3 206.14-18.3 200.04-8.15 207.54 0ZM187.39-21.85L187.39-21.85 188.74-20.4Q193.04-23.25 193.04-28.5L193.04-28.5Q193.04-31.35 191.86-32.93 190.69-34.5 188.64-34.5L188.64-34.5Q186.59-34.5 185.21-32.98 183.84-31.45 183.84-28.95L183.84-28.95Q183.84-27.25 184.69-25.58 185.54-23.9 187.39-21.85ZM180.74-9.1L180.74-9.1Q180.74-5.25 183.01-2.88 185.29-0.5 188.94-0.5L188.94-0.5Q193.94-0.5 197.59-6L197.59-6 186.29-18.3Q180.74-15.35 180.74-9.1ZM212.28-1.1L212.28-1.1 212.58-4.1 212.88-4.1Q214.83-2.4 217.28-1.45 219.73-0.5 222.13-0.5L222.13-0.5Q225.53-0.5 227.63-2.38 229.73-4.25 229.73-7.4L229.73-7.4Q229.73-9.15 228.96-10.65 228.18-12.15 226.41-13.7 224.63-15.25 221.53-17.05L221.53-17.05Q219.38-18.3 217.43-19.68 215.48-21.05 214.23-22.88 212.98-24.7 212.98-27.25L212.98-27.25Q212.98-31.05 215.73-33.38 218.48-35.7 222.98-35.7L222.98-35.7Q224.98-35.7 227.28-35.27 229.58-34.85 230.83-34.2L230.83-34.2 230.58-31.4 230.28-31.4Q227.43-34.5 222.98-34.5L222.98-34.5Q219.78-34.5 217.83-32.88 215.88-31.25 215.88-28.5L215.88-28.5Q215.88-26.45 216.96-24.98 218.03-23.5 219.73-22.33 221.43-21.15 223.38-20.05L223.38-20.05Q225.63-18.75 227.76-17.3 229.88-15.85 231.26-13.83 232.63-11.8 232.63-8.75L232.63-8.75Q232.63-5.95 231.33-3.83 230.03-1.7 227.66-0.5 225.28 0.7 222.13 0.7L222.13 0.7Q220.13 0.7 217.43 0.2 214.73-0.3 212.28-1.1ZM251.98 0.7L237.58-35 241.23-35 253.48-4.4 253.78-4.4 261.78-24.2 257.43-35 261.08-35 273.28-4.5 273.58-4.5 283.68-35 287.33-35 272.93 0.7 271.83 0.7 262.48-22.55 253.08 0.7 251.98 0.7ZM292.13-17.5L292.13-17.5Q292.13-21.35 293.5-24.68 294.88-28 297.35-30.48 299.83-32.95 303.15-34.33 306.48-35.7 310.33-35.7L310.33-35.7Q314.18-35.7 317.5-34.33 320.83-32.95 323.3-30.48 325.78-28 327.15-24.68 328.53-21.35 328.53-17.5L328.53-17.5Q328.53-13.65 327.15-10.33 325.78-7 323.3-4.53 320.83-2.05 317.5-0.68 314.18 0.7 310.33 0.7L310.33 0.7Q306.48 0.7 303.15-0.68 299.83-2.05 297.35-4.53 294.88-7 293.5-10.33 292.13-13.65 292.13-17.5ZM295.93-17.5L295.93-17.5Q295.93-12.4 297.73-8.58 299.53-4.75 302.78-2.63 306.03-0.5 310.33-0.5L310.33-0.5Q314.63-0.5 317.88-2.63 321.13-4.75 322.93-8.6 324.73-12.45 324.73-17.5L324.73-17.5Q324.73-22.55 322.93-26.38 321.13-30.2 317.88-32.35 314.63-34.5 310.33-34.5L310.33-34.5Q306.03-34.5 302.8-32.38 299.58-30.25 297.75-26.43 295.93-22.6 295.93-17.5ZM339.03 0L339.03-35 345.73-35Q351.03-35 353.95-32.77 356.88-30.55 356.88-26.55L356.88-26.55Q356.88-23.45 355.05-21.4 353.23-19.35 349.78-18.65L349.78-18.65 349.78-18.35Q353.08-17.7 355.18-15.25 357.28-12.8 358.33-9.2L358.33-9.2Q359.28-5.9 360.2-4.08 361.13-2.25 362.25-1.45 363.38-0.65 364.93-0.3L364.93-0.3 364.93 0 362.88 0Q360.68 0 359.25-0.8 357.83-1.6 356.83-3.5 355.83-5.4 354.93-8.75L354.93-8.75Q353.48-13.9 351.08-16.05 348.68-18.2 345.23-18.2L345.23-18.2 344.93-18.2 344.93-19.1 345.23-19.1Q353.28-19.1 353.28-26.5L353.28-26.5Q353.28-33.8 345.73-33.8L345.73-33.8 342.43-33.8 342.43 0 339.03 0ZM382.12 0L371.12 0 371.12-35 382.12-35Q387.92-35 392.22-32.8 396.52-30.6 398.92-26.68 401.32-22.75 401.32-17.5L401.32-17.5Q401.32-12.25 398.92-8.33 396.52-4.4 392.22-2.2 387.92 0 382.12 0L382.12 0ZM382.12-33.8L382.12-33.8 374.52-33.8 374.52-1.2 382.12-1.2Q389.37-1.2 393.45-5.5 397.52-9.8 397.52-17.5L397.52-17.5Q397.52-25.2 393.45-29.5 389.37-33.8 382.12-33.8Z" opacity="1" transform="matrix(1,0,0,1,0,0)" fill="#000000" class="wordmark-text-0" data-fill-palette-color="primary" id="text-0"></path></svg></g></svg></g></svg></g></svg></g><g><svg viewBox="0 0 54.760655773241055 52.004063020457416" height="52.004063020457416" width="54.760655773241055"><g><svg xmlns="http://www.w3.org/2000/svg" xmlns:xlink="http://www.w3.org/1999/xlink" version="1.1" x="8" y="0" viewBox="17.297984073868285 7.411 65.40905410401965 87.75745672709292" enable-background="new 0 0 100 100" xml:space="preserve" height="52.004063020457416" width="38.760655773241055" class="icon-icon-0" data-fill-palette-color="accent" id="icon-0"><path d="M51.813 12.411L52.846 12.529C53.833 12.641 54.824 12.753 55.809 12.879 60.684 13.497 65.29 14.79 69.503 16.723 71.667 17.717 73.777 18.864 76.012 20.079 76.575 20.384 77.135 20.689 77.698 20.992 77.682 25.389 77.684 29.825 77.684 34.13 77.686 39.863 77.688 45.791 77.651 51.615 77.61 58.629 75.403 65.097 70.903 71.396 65.749 78.615 58.915 84.582 50.046 89.593 40.546 83.989 33.4 77.499 28.245 69.806 24.173 63.732 22.232 57.361 22.312 50.327 22.4 42.458 22.364 34.476 22.329 26.757 22.32 24.784 22.311 22.811 22.304 20.839 30.033 16.162 37.865 13.465 46.188 12.61 46.665 12.561 47.142 12.51 47.619 12.458L48.066 12.41zM52.1 7.411H47.798C47.092 7.486 46.383 7.564 45.676 7.637 35.648 8.668 26.516 12.178 18.065 17.589 17.482 17.963 17.296 18.382 17.298 19.054 17.328 29.46 17.429 39.867 17.313 50.272 17.22 58.467 19.577 65.855 24.092 72.591 30.603 82.307 39.442 89.424 49.554 95.076A0.9 0.9 0 0 0 49.98 95.168C50.16 95.168 50.345 95.13 50.477 95.061 60.143 89.915 68.562 83.278 74.975 74.301 79.811 67.532 82.604 60.024 82.653 51.645 82.719 40.866 82.66 30.086 82.707 19.308 82.711 18.367 82.401 17.825 81.627 17.418 78.284 15.667 75.017 13.751 71.593 12.18 66.785 9.974 61.703 8.587 56.443 7.92 54.994 7.735 53.546 7.579 52.1 7.411" fill="#000000" data-fill-palette-color="accent"></path><path d="M48.491 62.945L45.318 66.119 31.777 52.579 34.951 49.406z" fill="#000000" data-fill-palette-color="accent"></path><rect x="28.258" y="59.134" transform="matrix(0.7072 -0.707 0.707 0.7072 -32.6077 43.7845)" width="16.609" height="4.259" fill="#000000" data-fill-palette-color="accent"></rect><g fill="#d90000" data-fill-palette-color="accent"><g fill="#d90000" data-fill-palette-color="accent"><polygon points="58.51,46.317 69.379,35.45 71.896,26.006 62.703,28.773 51.834,39.642   " fill="#000000" data-fill-palette-color="accent"></polygon></g><g fill="#d90000" data-fill-palette-color="accent"><rect x="40.956" y="49.962" transform="matrix(-0.707 0.7072 -0.7072 -0.707 112.8808 62.5994)" width="5.035" height="9.442" fill="#000000" data-fill-palette-color="accent"></rect></g></g><path d="M51.509 62.585L54.682 65.759 68.223 52.219 65.048 49.046z" fill="#000000" data-fill-palette-color="accent"></path><rect x="55.134" y="58.776" transform="matrix(-0.7071 -0.7071 0.7071 -0.7071 65.229 148.8313)" width="16.609" height="4.261" fill="#000000" data-fill-palette-color="accent"></rect><g fill="#d90000" data-fill-palette-color="accent"><polygon points="58.089,49.205 37.297,28.413 28.103,25.646 30.621,35.088 51.413,55.881 54.971,59.439 61.648,52.766  " fill="#000000" data-fill-palette-color="accent"></polygon></g></svg></g></svg></g></svg></g><defs></defs></svg><rect width="395.52" height="44.82921055149602" fill="none" stroke="none" visibility="hidden"></rect></g></svg></g></svg>